<?xml version="1.0" standalone="no"?>
<!DOCTYPE svg PUBLIC "-//W3C//DTD SVG 20010904//EN"
 "http://www.w3.org/TR/2001/REC-SVG-20010904/DTD/svg10.dtd">
<svg version="1.0" xmlns="http://www.w3.org/2000/svg"
 width="310.000000pt" height="310.000000pt" viewBox="0 0 310.000000 310.000000"
 preserveAspectRatio="xMidYMid meet">
<metadata>
Created by potrace 1.14, written by Peter Selinger 2001-2017
</metadata>
<g transform="translate(0.000000,310.000000) scale(0.100000,-0.100000)"
fill="#000000" stroke="none">
<path d="M2928 3052 c-5 -19 -29 -24 -44 -9 -11 10 -24 8 -24 -4 0 -5 4 -7 10
-4 6 3 7 -1 4 -10 -6 -14 -8 -14 -19 2 -13 17 -14 17 -21 0 -5 -15 -9 -16 -15
-5 -7 10 -9 11 -9 0 0 -7 -5 -10 -11 -6 -8 4 -7 9 2 15 7 4 10 11 6 16 -12 11
-27 -19 -21 -41 5 -14 3 -16 -7 -11 -8 5 -5 -2 6 -15 l20 -23 -25 13 c-20 10
-23 10 -13 -1 10 -10 10 -16 0 -28 -8 -10 -8 -12 -1 -8 7 4 14 1 17 -7 4 -10
0 -12 -14 -9 -13 4 -19 0 -19 -12 0 -14 -3 -15 -14 -6 -12 10 -14 9 -9 -7 6
-23 -14 -33 -42 -21 -11 4 -15 8 -9 8 17 1 25 28 8 28 -7 0 -11 -4 -8 -9 3 -4
-2 -8 -10 -8 -9 0 -15 3 -15 8 4 21 -2 32 -13 26 -8 -5 -9 -2 -5 9 4 11 1 17
-8 17 -8 0 -15 5 -15 11 0 6 -9 9 -20 6 -13 -3 -20 0 -20 9 0 8 -5 14 -11 14
-5 0 -7 -6 -3 -12 5 -9 2 -9 -9 1 -17 14 -24 26 -9 17 4 -2 14 0 22 5 11 7 6
8 -15 3 -16 -3 -35 -6 -41 -6 -6 -1 -11 -7 -11 -15 0 -9 4 -10 12 -3 12 10 19
4 53 -42 10 -12 10 -18 1 -24 -8 -5 -9 -3 -4 6 6 9 4 11 -5 5 -9 -6 -11 -4 -5
6 5 8 5 11 0 7 -4 -4 -15 -2 -24 4 -13 10 -14 10 -3 -2 12 -14 18 -39 5 -27
-3 4 -12 2 -20 -5 -11 -9 -12 -7 -6 8 6 17 5 17 -10 5 -9 -7 -17 -10 -17 -6 0
4 -6 2 -14 -4 -11 -9 -16 -9 -22 0 -4 7 -3 9 4 5 6 -3 13 -2 17 4 4 6 11 7 17
4 7 -4 8 -2 4 5 -6 8 -12 9 -20 2 -7 -6 -15 -9 -18 -6 -2 3 -15 -6 -28 -20
-13 -14 -18 -25 -12 -25 6 0 16 8 22 18 11 16 11 16 6 -1 -3 -10 -6 -21 -6
-23 0 -2 -8 -4 -17 -4 -16 -1 -16 -2 -2 -10 10 -6 15 -18 12 -32 -2 -13 3 -32
12 -43 16 -20 16 -20 6 2 -18 36 -12 40 10 8 12 -16 19 -22 15 -12 -3 9 -1 17
4 17 6 0 10 -8 10 -17 1 -14 4 -12 16 7 13 22 14 22 9 3 -4 -16 0 -23 17 -29
13 -4 25 -7 28 -7 3 1 6 -7 6 -17 0 -10 -4 -16 -8 -14 -4 3 -8 0 -8 -5 0 -6 5
-11 11 -11 5 0 7 -5 4 -10 -4 -6 -11 -8 -16 -4 -5 3 -8 0 -7 -7 2 -6 -3 -14
-11 -17 -10 -3 -11 0 -5 9 7 12 5 12 -9 0 -13 -10 -14 -17 -6 -27 8 -9 5 -15
-10 -24 -17 -9 -20 -8 -15 5 4 8 1 15 -5 15 -6 0 -10 -3 -10 -7 5 -33 -2 -45
-26 -41 -22 5 -23 3 -13 -10 11 -13 10 -15 -4 -9 -12 4 -15 2 -12 -8 3 -8 1
-22 -6 -32 -9 -16 -10 -15 -5 7 l6 25 -20 -25 c-11 -14 -19 -31 -16 -38 3 -7
0 -10 -5 -7 -6 3 -13 -1 -16 -9 -3 -9 -9 -14 -13 -12 -4 3 -13 1 -21 -5 -10
-6 -11 -9 -2 -9 6 0 12 -4 12 -9 0 -11 -19 -9 -38 3 -12 7 -12 4 -1 -15 11
-22 11 -23 -5 -10 -9 8 -16 10 -15 5 3 -20 -1 -35 -10 -30 -5 3 -12 -1 -15
-10 -3 -8 -10 -13 -15 -10 -5 3 -15 -2 -22 -12 -12 -15 -12 -16 2 -4 14 10 18
10 22 -1 3 -8 -3 -14 -16 -14 -25 -2 -39 -23 -26 -39 7 -8 2 -10 -16 -6 -15 2
-25 0 -25 -7 0 -7 5 -9 12 -5 7 4 8 3 4 -5 -4 -6 -11 -9 -16 -6 -4 3 -10 -1
-13 -9 -3 -8 -16 -12 -31 -11 -23 3 -24 1 -16 -16 10 -18 6 -23 -12 -20 -5 0
-8 -5 -8 -13 0 -8 -4 -18 -10 -21 -6 -3 -7 1 -4 9 3 9 2 16 -4 16 -5 0 -12 -8
-14 -18 -7 -25 -31 -24 -60 2 -13 12 -18 17 -11 12 29 -19 11 4 -20 25 -22 16
-28 18 -18 6 12 -15 12 -17 -3 -11 -9 3 -16 10 -16 15 0 5 -5 9 -11 9 -5 0 -7
-6 -3 -12 4 -7 -8 2 -26 20 -18 18 -39 31 -45 28 -7 -2 -23 3 -35 11 -21 15
-22 15 -11 -6 15 -28 4 -27 -20 2 -17 20 -18 20 -12 2 6 -17 5 -18 -9 -7 -11
9 -18 10 -23 2 -3 -5 -12 -10 -18 -10 -7 0 -6 4 3 10 10 6 6 9 -18 8 -17 -1
-29 -5 -26 -9 2 -4 0 -10 -5 -13 -5 -4 -13 -1 -17 5 -4 8 -3 9 4 5 17 -10 15
-1 -4 14 -8 8 -14 9 -12 4 2 -5 -2 -9 -7 -9 -5 0 -9 4 -7 9 2 5 -4 4 -12 -4
-18 -14 -22 -25 -6 -15 6 3 10 4 10 1 0 -3 -9 -10 -20 -16 -15 -8 -19 -7 -16
2 1 7 1 10 -1 5 -3 -4 -9 -4 -15 -1 -6 4 -6 -1 1 -14 9 -17 8 -19 -9 -15 -11
3 -20 10 -20 16 0 6 -7 2 -15 -9 -8 -10 -15 -16 -15 -11 0 4 -13 -7 -30 -25
-19 -21 -30 -28 -30 -18 0 13 -2 13 -9 1 -5 -8 -6 -22 -1 -30 5 -10 2 -21 -7
-30 -13 -12 -14 -11 -8 8 4 14 2 21 -6 21 -7 0 -9 -3 -6 -7 4 -3 -1 -12 -11
-20 -9 -8 -11 -11 -4 -8 32 17 4 -31 -31 -54 -20 -13 -35 -26 -32 -29 2 -3 11
1 20 8 8 7 15 8 15 2 0 -5 -7 -13 -16 -16 -9 -3 -12 -11 -8 -18 5 -8 0 -7 -11
2 -17 14 -18 14 -5 -10 13 -24 12 -24 -6 -10 -10 8 -16 10 -11 5 4 -4 -5 -17
-20 -28 -16 -10 -20 -17 -11 -13 23 7 23 1 -2 -24 -12 -12 -18 -26 -14 -32 4
-7 3 -8 -5 -4 -6 4 -9 11 -6 16 3 4 -3 7 -12 6 -9 -2 -19 -8 -21 -14 -2 -7 -8
-10 -13 -6 -5 3 -9 0 -9 -6 0 -6 -5 -8 -10 -5 -6 4 -10 3 -9 -2 3 -20 -2 -34
-11 -28 -6 4 -7 11 -4 17 4 7 2 8 -4 4 -9 -5 -9 -12 0 -26 7 -10 16 -16 20
-14 4 3 8 -4 8 -16 0 -17 4 -20 20 -15 12 4 20 2 20 -5 0 -6 -4 -8 -10 -5 -5
3 -10 0 -10 -8 0 -8 9 -17 21 -20 12 -3 18 -10 14 -17 -5 -8 -11 -7 -23 2 -14
12 -14 10 -3 -10 7 -13 17 -20 24 -16 7 4 2 -4 -11 -17 -19 -20 -24 -22 -32
-9 -5 8 -10 10 -10 5 0 -6 4 -15 9 -20 6 -6 4 -20 -4 -35 -8 -14 -14 -20 -15
-13 0 6 -9 11 -19 10 -11 0 -17 -5 -15 -9 3 -5 11 -6 17 -2 7 3 3 -2 -7 -10
-16 -13 -22 -13 -28 -3 -12 19 -9 -1 3 -26 7 -12 8 -19 4 -15 -5 4 -14 3 -21
-3 -8 -6 -21 -9 -29 -5 -9 3 -13 2 -10 -4 3 -6 1 -11 -4 -11 -6 -1 -15 -2 -20
-3 -5 0 -13 -5 -18 -10 -4 -5 -3 -6 3 -3 7 4 14 1 17 -6 3 -8 -7 -12 -35 -11
-21 0 -42 -4 -45 -9 -3 -6 -1 -7 5 -3 7 4 12 2 12 -4 0 -6 5 -8 12 -4 7 4 8 3
4 -5 -4 -6 -11 -9 -16 -6 -5 3 -13 -2 -18 -11 -8 -15 -10 -15 -15 0 -5 11 -3
15 5 10 7 -4 8 -3 4 4 -10 17 -15 15 -26 -10 -7 -19 -9 -20 -9 -4 -1 16 -3 16
-22 -5 -19 -23 -20 -23 -10 -2 13 25 14 44 3 26 -12 -19 -69 -18 -99 0 -6 4
-14 2 -16 -3 -3 -6 -4 -5 -2 2 1 7 8 12 14 10 6 -1 11 2 11 8 0 5 -7 10 -16
10 -9 0 -12 5 -8 12 5 8 2 9 -10 5 -11 -5 -15 -3 -10 5 5 8 2 9 -10 5 -14 -6
-16 -3 -11 16 5 17 4 19 -4 7 -6 -8 -11 -11 -11 -6 0 5 -6 3 -13 -3 -8 -6 -16
-8 -20 -5 -3 3 -4 -2 -3 -12 2 -10 9 -20 16 -22 9 -3 11 1 6 14 -5 15 -4 16 5
7 16 -16 1 -35 -21 -28 -10 3 -22 0 -26 -6 -4 -7 -3 -9 3 -6 6 4 13 0 16 -8 4
-9 1 -12 -9 -8 -9 3 -14 0 -12 -8 2 -8 -3 -13 -9 -11 -7 1 -13 -6 -13 -15 0
-15 -2 -14 -15 3 -13 18 -14 18 -10 -7 3 -18 0 -26 -10 -26 -8 0 -12 3 -10 7
2 3 -6 7 -18 7 -12 1 -17 -1 -11 -5 13 -8 15 -44 2 -36 -5 3 -6 9 -4 13 3 4
-1 8 -9 8 -8 0 -13 -3 -11 -6 2 -3 -2 -11 -9 -18 -10 -9 -15 -9 -17 -1 -5 14
-28 1 -28 -15 0 -7 4 -6 10 3 6 9 10 10 10 3 0 -6 -13 -18 -29 -26 -26 -13
-31 -13 -46 2 -16 14 -16 13 0 -12 14 -21 15 -27 4 -25 -8 2 -18 8 -22 13 -5
6 -7 0 -4 -12 6 -26 4 -27 -26 -12 -18 9 -20 9 -9 -2 17 -18 15 -34 -3 -19
-13 10 -15 9 -15 -11 0 -21 -1 -22 -13 -5 -12 16 -13 15 -11 -13 1 -17 -2 -28
-7 -25 -5 3 -7 9 -5 13 3 4 -1 8 -9 8 -10 0 -13 -8 -10 -26 4 -25 3 -25 -10
-7 -15 19 -15 19 -15 -2 0 -13 -6 -22 -15 -22 -8 0 -15 -5 -15 -11 0 -5 4 -7
10 -4 6 4 7 -1 3 -11 -5 -15 -7 -15 -15 0 -5 9 -14 16 -21 16 -7 0 -6 -4 3
-10 13 -8 12 -12 -7 -25 -13 -9 -23 -21 -23 -27 0 -7 7 -3 16 8 14 18 14 17 2
-6 -7 -14 -13 -29 -13 -35 0 -5 -8 -9 -18 -9 -15 2 -16 -1 -5 -14 7 -9 9 -13
3 -10 -5 3 -16 0 -23 -8 -7 -8 -9 -14 -3 -14 10 0 9 -25 -2 -36 -4 -4 -1 -14
6 -22 10 -13 9 -15 -5 -9 -12 4 -15 2 -11 -8 3 -8 9 -12 14 -9 16 9 10 -7 -9
-24 -10 -10 -11 -13 -2 -7 8 5 12 6 8 1 -4 -5 -1 -23 8 -40 14 -29 14 -30 -2
-9 -9 13 -21 23 -26 23 -6 0 -5 -7 2 -15 11 -13 10 -14 -4 -9 -9 3 -16 1 -16
-6 0 -6 4 -9 9 -6 4 3 17 -1 27 -9 16 -13 17 -14 2 -9 -11 4 -18 1 -18 -6 0
-6 -5 -8 -12 -4 -9 5 -9 2 1 -9 7 -9 19 -17 25 -17 6 0 4 5 -4 11 -13 9 -13
10 0 6 8 -2 15 -8 15 -13 0 -5 4 -15 9 -23 7 -10 6 -12 -4 -6 -10 6 -12 4 -7
-8 3 -9 1 -19 -5 -23 -7 -5 -8 -2 -3 6 5 9 4 11 -4 6 -6 -4 -9 -12 -5 -17 3
-5 9 -7 14 -4 4 3 11 -2 14 -11 3 -8 2 -12 -4 -9 -5 3 -8 -4 -7 -15 1 -13 6
-19 16 -15 10 4 11 2 3 -8 -6 -7 -9 -22 -7 -32 2 -11 4 -24 4 -29 1 -4 7 -6
15 -3 8 3 20 -2 28 -11 7 -9 8 -13 2 -9 -7 4 -15 0 -18 -9 -5 -13 -2 -15 16
-11 l23 6 -22 -19 c-21 -16 -21 -19 -5 -26 9 -4 23 -6 30 -5 10 2 12 -4 7 -18
-5 -17 -3 -20 12 -15 16 5 16 4 -2 -12 -14 -11 -15 -15 -4 -11 23 8 39 -6 41
-35 1 -15 5 -26 8 -26 19 2 30 -3 25 -12 -10 -16 2 -12 21 8 16 15 17 15 12 0
-4 -9 -4 -19 0 -21 4 -2 2 -2 -5 -1 -7 2 -15 -2 -19 -8 -4 -7 -3 -8 4 -4 7 4
12 3 12 -3 0 -6 8 -8 18 -5 14 5 14 4 3 -4 -8 -6 -16 -18 -17 -28 -1 -9 -8
-22 -15 -28 -9 -8 -10 -8 -6 0 4 7 0 15 -9 18 -8 3 -13 2 -9 -3 3 -5 -2 -16
-10 -24 -18 -18 -20 -31 -3 -21 6 4 8 3 4 -4 -3 -6 -16 -9 -29 -7 -22 4 -22 4
-2 -11 20 -16 19 -16 -4 -9 -16 5 -21 4 -17 -4 4 -6 2 -11 -4 -11 -6 0 -8 -5
-4 -12 5 -7 2 -9 -9 -5 -11 4 -14 2 -10 -9 6 -16 -13 -20 -20 -4 -3 6 -4 5 -3
-2 2 -7 -2 -27 -9 -45 -8 -17 -10 -35 -7 -39 4 -4 1 -4 -6 0 -7 4 -10 11 -7
16 3 4 -2 10 -10 13 -10 4 -12 1 -8 -10 4 -11 3 -14 -6 -9 -7 5 -10 2 -9 -6 2
-7 -4 -12 -12 -10 -12 3 -12 1 -3 -9 8 -8 9 -18 2 -30 -7 -15 -6 -17 5 -13 8
3 19 -3 25 -14 6 -11 16 -19 23 -18 28 6 48 19 42 27 -3 5 -10 6 -16 3 -7 -4
-8 -2 -4 5 4 6 12 9 17 6 5 -4 9 -1 9 5 0 6 4 9 9 5 15 -8 32 29 21 43 -7 9
-7 9 2 2 18 -15 31 -12 25 4 -4 10 -1 13 9 9 7 -3 14 -10 14 -16 0 -6 3 -7 6
-4 4 4 1 14 -7 23 -13 16 -12 16 11 4 l25 -13 -20 23 -20 23 23 -12 c23 -12
24 -12 26 19 1 21 13 27 24 14 4 -4 1 -4 -7 1 -10 5 -12 4 -7 -4 4 -6 12 -9
17 -5 5 3 7 10 4 15 -4 5 -1 9 5 9 6 0 8 6 4 12 -4 7 3 4 17 -7 13 -11 18 -13
12 -5 -17 18 -16 33 0 27 8 -3 14 1 14 8 0 7 -7 11 -16 8 -11 -3 -10 0 3 7 14
10 20 10 26 0 5 -8 9 -7 13 4 4 9 12 16 19 16 8 0 9 -3 3 -8 -23 -16 -14 -30
14 -22 20 5 28 4 28 -5 0 -8 -9 -12 -19 -10 -10 2 -16 0 -13 -6 4 -5 11 -7 16
-4 5 4 9 1 9 -5 0 -7 6 -8 19 -1 14 8 22 7 32 -7 13 -16 12 -16 -6 -3 -18 14
-19 14 -5 -1 8 -9 22 -18 30 -20 8 -2 22 -12 32 -23 l18 -20 -7 20 c-6 18 -5
18 10 6 9 -7 14 -18 11 -25 -3 -6 1 -3 9 7 13 16 15 16 21 1 4 -10 12 -14 24
-9 14 5 15 4 5 -6 -7 -7 -13 -18 -13 -23 0 -6 5 -4 11 4 8 12 12 12 16 2 4
-10 8 -10 21 0 13 11 15 10 9 -5 -4 -10 -3 -16 2 -12 5 3 13 1 16 -5 5 -8 11
-8 20 0 10 8 15 8 21 -1 5 -8 3 -9 -6 -4 -9 5 -11 4 -6 -4 6 -9 14 -8 33 4 14
9 27 14 31 11 3 -3 0 -6 -6 -6 -14 0 -16 -36 -3 -44 5 -4 7 4 4 16 -4 19 -3
20 6 8 8 -12 11 -12 11 -1 0 11 3 11 17 0 11 -10 14 -10 9 -1 -4 6 -2 12 3 12
6 0 11 -6 11 -12 0 -9 4 -8 10 2 8 13 10 13 10 1 0 -11 4 -9 15 5 8 10 15 15
14 9 -4 -31 1 -38 15 -20 12 17 16 18 32 5 15 -13 16 -13 9 -1 -6 11 -4 13 8
8 12 -4 17 -1 17 11 0 15 2 15 10 2 8 -13 14 -8 12 11 -1 3 4 6 11 6 7 0 21 4
32 7 19 6 19 6 0 -4 -12 -6 -27 -21 -34 -33 -13 -21 -12 -21 12 2 15 13 31 20
38 16 7 -5 10 -4 5 3 -3 6 -2 13 4 17 6 4 8 10 5 15 -3 4 5 6 17 2 16 -4 19
-2 13 9 -7 12 -6 12 7 1 13 -10 18 -10 24 -1 5 8 3 10 -7 5 -8 -4 -5 0 6 8 11
9 26 24 34 34 11 14 13 14 8 1 -3 -9 -1 -22 4 -30 8 -11 9 -10 7 6 -2 11 3 20
10 20 14 0 17 13 6 23 -4 4 -4 1 1 -7 5 -10 4 -12 -4 -7 -17 11 -4 25 22 22
19 -2 23 2 21 24 -1 17 3 27 12 27 7 0 10 -5 7 -10 -4 -6 -1 -7 6 -3 7 5 10
15 7 23 -4 9 -2 11 6 7 8 -5 9 -2 4 11 -5 15 -4 16 8 6 12 -10 14 -7 12 17 -1
21 2 28 11 25 7 -3 10 -10 6 -17 -3 -6 -2 -8 2 -3 5 4 10 17 12 29 2 12 9 26
16 31 8 6 7 7 -5 3 -10 -3 -20 -1 -23 5 -4 5 -1 8 6 7 7 -2 13 3 14 10 0 14
13 17 23 6 4 -4 1 -4 -7 1 -10 5 -12 4 -7 -4 13 -21 27 -1 14 22 -10 21 -10
21 7 7 17 -14 17 -13 7 5 -11 22 0 55 20 55 6 0 3 -10 -8 -22 l-19 -23 22 19
c13 10 20 22 18 27 -3 4 3 12 12 18 10 6 13 11 8 11 -6 0 -16 -5 -22 -11 -8
-8 -13 -7 -18 3 -5 7 -5 10 0 6 4 -4 14 0 22 8 8 8 19 11 25 8 7 -4 8 -2 4 5
-4 6 -13 8 -19 4 -8 -5 -8 -2 0 9 7 8 10 18 6 22 -4 4 1 4 11 0 15 -6 17 -4
11 7 -4 8 -5 11 0 7 10 -9 45 9 45 24 0 7 -5 6 -15 -2 -13 -11 -14 -10 -9 3 4
10 15 15 33 12 24 -3 27 0 26 25 0 15 -3 26 -7 24 -4 -2 -9 0 -13 6 -3 5 -1
10 6 10 7 0 9 3 6 6 -4 4 -13 1 -21 -5 -11 -9 -16 -9 -22 0 -4 8 -3 9 4 5 7
-4 12 -3 12 2 0 6 -6 12 -13 15 -8 3 -13 21 -12 47 1 22 -2 43 -6 46 -4 2 -6
-8 -4 -23 2 -25 2 -26 -11 -8 -10 13 -11 22 -3 32 9 10 8 13 -2 13 -8 1 -1 8
15 17 28 15 29 16 11 29 -11 8 -13 14 -6 14 7 0 9 5 5 12 -5 8 0 7 11 -2 19
-15 19 -14 2 12 -16 25 -16 27 0 21 12 -5 14 -3 8 8 -7 11 -6 12 6 2 12 -10
15 -8 16 8 1 12 -3 17 -9 13 -7 -4 -8 -2 -4 5 4 6 12 8 18 5 7 -5 9 -1 5 9 -6
17 7 24 16 10 2 -5 2 -2 1 5 -2 6 2 12 9 12 8 0 7 4 -3 11 -12 8 -10 9 8 4 13
-4 22 -2 22 4 0 6 -6 11 -12 11 -7 0 -5 5 5 11 9 5 22 7 27 4 6 -3 7 1 4 10
-5 11 -10 13 -19 5 -10 -8 -15 -8 -21 1 -4 7 -3 9 4 5 6 -3 13 -2 17 4 4 7 12
7 25 0 28 -15 37 -12 14 5 -17 13 -17 14 -1 15 9 0 17 5 17 11 0 5 -5 7 -12 3
-7 -4 -8 -3 -4 5 4 6 11 9 16 6 4 -3 11 1 13 7 4 10 6 9 6 -1 1 -11 4 -11 16
-1 11 9 15 9 15 1 0 -9 5 -9 21 0 15 8 19 8 15 0 -5 -7 2 -11 16 -11 18 0 20
-2 8 -10 -12 -8 -10 -10 8 -10 14 0 21 -4 16 -11 -4 -8 0 -8 15 0 16 9 21 9
21 0 0 -8 4 -9 13 0 8 6 17 8 20 4 4 -3 7 1 7 9 0 9 -6 19 -12 22 -7 3 0 2 17
-1 28 -6 29 -6 12 11 -20 20 -23 31 -5 20 8 -5 9 -2 4 11 -5 15 -4 16 9 5 11
-9 15 -9 15 -1 0 7 5 9 13 5 6 -4 9 -4 5 1 -4 4 -2 15 4 24 8 10 4 9 -10 -3
-12 -11 -22 -14 -22 -9 0 6 7 14 16 17 8 3 12 10 9 16 -9 15 1 12 18 -5 13
-13 16 -13 21 1 3 8 2 12 -4 9 -6 -3 -10 -1 -10 4 0 6 9 11 21 11 13 0 18 -4
13 -12 -5 -7 -3 -8 5 -4 9 6 8 13 -5 27 -14 16 -15 19 -3 14 9 -3 22 1 29 10
9 11 16 12 25 5 9 -8 15 -8 20 0 3 6 11 7 17 4 6 -4 8 -2 5 3 -4 6 2 21 13 33
11 12 17 27 13 33 -3 5 -2 8 3 5 17 -10 49 9 54 33 5 19 12 24 36 22 22 -2 25
0 14 8 -13 8 -12 12 9 29 13 11 18 20 12 20 -7 0 -10 4 -6 10 3 5 13 7 23 4
14 -5 14 -4 2 4 -8 6 -19 8 -25 5 -5 -4 -1 4 10 17 11 13 15 21 9 17 -6 -3
-11 0 -11 8 0 8 4 12 9 9 4 -3 8 2 8 10 0 10 -6 13 -17 10 -17 -5 -17 -5 0 6
9 6 14 16 11 22 -5 8 -1 9 10 5 9 -4 14 -3 11 2 -3 5 -1 12 4 16 5 3 9 14 8
25 -1 10 -4 17 -7 15 -3 -2 -12 0 -20 5 -13 8 -13 13 -2 31 8 11 9 18 3 14 -6
-3 -12 -1 -12 4 -3 21 -4 26 -13 40 -6 10 -5 12 2 7 8 -5 12 1 12 14 0 14 -4
19 -12 14 -8 -5 -9 -2 -5 10 4 10 -1 23 -13 33 -10 9 -17 20 -14 25 3 4 0 8
-7 8 -7 0 -10 11 -6 33 3 17 3 26 0 19 -4 -10 -9 -9 -19 5 -13 17 -14 17 -8
-2 4 -15 4 -17 -4 -6 -12 17 -4 43 11 34 6 -3 7 -1 3 6 -6 9 -11 9 -22 0 -19
-16 -18 -4 2 15 8 9 11 16 5 16 -6 0 -8 7 -5 15 4 8 10 15 16 15 5 0 6 -5 2
-12 -4 -7 -3 -8 4 -4 7 4 12 15 12 25 0 10 8 25 18 32 15 13 16 12 4 -3 -9
-11 -10 -18 -2 -23 6 -4 10 -3 9 2 -3 12 12 46 29 65 12 14 18 15 29 6 11 -9
12 -7 3 16 -6 16 -6 25 0 21 13 -8 52 33 44 46 -4 8 -1 8 13 0 18 -9 20 -7 16
17 -4 23 -3 24 7 10 6 -10 16 -18 23 -18 8 0 9 2 1 8 -6 4 -11 15 -11 24 0 15
3 15 15 5 13 -10 14 -8 7 13 -7 21 -6 23 7 12 13 -10 15 -8 13 13 -4 28 10 42
21 24 4 -7 3 -9 -4 -5 -12 7 -10 -20 3 -31 4 -4 5 -3 1 4 -3 6 4 19 16 29 13
9 16 14 6 11 -9 -3 -15 -1 -14 6 3 24 17 36 36 32 11 -2 23 1 26 7 4 6 3 8 -3
5 -6 -4 -13 0 -16 8 -4 9 -1 12 7 9 8 -3 18 7 26 25 7 17 17 31 22 31 6 0 4
-8 -3 -17 -13 -16 -12 -17 4 -4 9 7 17 19 17 26 0 7 9 15 21 18 11 3 23 15 26
26 3 12 10 21 15 21 6 0 7 7 4 16 -3 8 -2 12 4 9 6 -3 10 -1 10 4 0 6 7 11 15
11 8 0 15 9 15 20 0 11 3 20 8 21 4 0 17 2 30 5 21 4 28 -9 23 -39 -1 -5 3 -6
9 -2 5 3 10 1 10 -4 0 -6 5 -11 12 -11 6 0 4 7 -5 18 -14 15 -15 19 -2 19 8 0
12 -4 9 -8 -2 -4 0 -10 6 -14 6 -4 7 -11 4 -17 -5 -7 -1 -9 9 -5 11 4 14 2 10
-8 -3 -8 -10 -12 -16 -8 -6 3 -7 1 -3 -5 5 -9 13 -9 26 -2 28 15 37 12 14 -4
-10 -8 -16 -18 -11 -22 4 -4 7 -2 7 4 0 7 5 12 10 12 7 0 7 -7 0 -22 -10 -20
-9 -21 3 -6 8 10 18 13 26 8 11 -6 11 -9 0 -13 -9 -3 -10 -6 -2 -6 6 -1 14 3
18 9 3 5 13 7 23 4 14 -5 14 -4 3 4 -8 6 -16 19 -17 29 -2 9 -8 19 -14 21 -7
3 -4 10 7 19 17 13 16 14 -7 8 -22 -5 -23 -4 -7 5 13 8 22 9 31 1 7 -6 16 -8
19 -4 4 3 7 1 7 -6 0 -7 -6 -11 -14 -8 -10 4 -12 0 -9 -14 5 -18 6 -18 18 -3
8 11 17 14 26 9 11 -7 12 -6 2 6 -8 10 -9 19 -1 29 8 13 9 12 5 -2 -3 -9 0
-18 7 -21 8 -3 11 5 10 25 -1 19 5 36 19 49 11 10 16 19 10 19 -6 0 -13 9 -16
21 -3 12 -10 18 -17 14 -6 -4 -20 1 -30 10 -14 12 -20 13 -26 4 -4 -7 -3 -10
2 -7 5 3 18 -4 29 -15 17 -17 12 -16 -27 6 -27 14 -48 21 -48 16 0 -6 -5 -7
-11 -3 -7 4 -8 9 -1 13 5 3 12 21 15 40 7 40 24 54 50 39 15 -7 18 -7 12 2 -5
9 -1 10 14 5 24 -7 26 -3 10 28 -11 21 -11 21 7 5 19 -16 20 -16 21 3 1 12 -3
17 -9 13 -7 -5 -8 -2 -4 5 5 7 14 10 22 7 8 -3 14 -1 14 3 0 5 -5 11 -12 13
-6 2 -12 16 -12 30 -1 15 1 25 5 23 3 -3 15 2 25 10 16 12 16 14 2 9 -13 -4
-16 -1 -14 13 2 10 -3 27 -11 38 -16 20 -16 20 -9 0 6 -18 5 -19 -7 -3 -11 14
-16 15 -27 5 -7 -7 -10 -7 -7 -2 3 6 2 17 -2 24 -6 9 -10 7 -13 -7z m69 -47
c0 -8 -4 -15 -9 -15 -10 0 -11 14 -1 23 9 10 10 9 10 -8z m-405 -103 c-17 -5
32 -52 56 -53 12 0 11 -3 -5 -9 -27 -11 -31 -22 -5 -13 9 3 14 3 10 -2 -4 -4
-2 -15 5 -23 9 -13 9 -14 0 -8 -9 5 -13 0 -13 -16 0 -16 -3 -19 -9 -10 -11 18
-11 18 -41 3 -24 -11 -24 -11 -6 3 23 18 6 21 -27 5 -20 -9 -20 -9 -4 4 21 17
22 31 2 24 -8 -4 -17 -1 -21 5 -4 7 -3 8 4 4 7 -4 12 -1 12 9 0 9 -4 13 -10
10 -5 -3 -10 1 -10 10 0 9 -4 14 -8 11 -5 -3 -9 1 -9 9 0 19 2 19 21 -1 15
-14 16 -13 12 8 -2 15 -9 22 -20 20 -9 -2 -16 1 -16 5 0 5 21 9 48 9 26 1 41
-1 34 -4z m278 -82 c0 -5 -5 -10 -11 -10 -5 0 -7 5 -4 10 3 6 8 10 11 10 2 0
4 -4 4 -10z m-40 -115 c0 -5 -5 -3 -10 5 -5 8 -10 20 -10 25 0 6 5 3 10 -5 5
-8 10 -19 10 -25z m-19 4 c13 -21 11 -24 -16 -25 -14 -1 -25 2 -25 8 0 5 5 6
10 3 6 -3 10 -1 10 4 0 6 -4 11 -10 11 -5 0 -10 4 -10 9 0 14 30 7 41 -10z
m53 -22 c7 -6 4 -7 -7 -3 -10 3 -16 2 -12 -3 3 -5 0 -11 -6 -13 -7 -2 -5 -9 5
-17 14 -12 16 -12 11 1 -4 10 2 17 17 21 22 6 22 5 4 -8 -18 -14 -15 -20 7
-16 5 1 6 -3 2 -9 -3 -6 -10 -8 -15 -5 -5 3 -11 1 -15 -4 -3 -6 -12 -8 -20 -5
-8 4 -12 11 -8 17 4 6 0 8 -10 4 -12 -4 -14 -2 -10 11 5 15 3 14 -16 -2 -18
-17 -21 -17 -15 -3 6 16 17 21 37 18 4 -1 13 11 19 25 8 17 14 21 17 13 2 -8
9 -18 15 -22z m119 13 c3 -11 1 -20 -4 -20 -5 0 -9 9 -9 20 0 11 2 20 4 20 2
0 6 -9 9 -20z m-104 -146 c4 3 8 -1 8 -9 0 -11 -4 -12 -14 -4 -7 6 -13 17 -12
23 0 7 2 6 6 -2 2 -6 8 -10 12 -8z m-265 -26 c-3 -4 -11 -5 -19 -2 -11 5 -12
9 -2 19 12 13 31 -1 21 -17z m-778 -255 c-3 -3 -12 -1 -19 5 -8 7 -18 8 -22 4
-5 -4 -5 -1 -1 6 5 9 12 9 27 1 12 -6 18 -13 15 -16z m-368 -37 c-10 -7 -16
-15 -13 -18 3 -2 -2 -5 -12 -5 -13 0 -11 4 7 19 12 10 25 18 29 18 3 0 -2 -7
-11 -14z m-43 -44 c-3 -3 -11 0 -18 7 -9 10 -8 11 6 5 10 -3 15 -9 12 -12z
m-135 -188 c0 -8 -19 -13 -24 -6 -3 5 1 9 9 9 8 0 15 -2 15 -3z m-126 -110 c3
-8 2 -12 -4 -9 -6 3 -10 10 -10 16 0 14 7 11 14 -7z m1132 -185 c3 -6 1 -16
-6 -22 -10 -9 -12 -8 -7 5 3 9 1 19 -6 22 -9 3 -9 5 0 5 6 1 15 -4 19 -10z
m-46 -172 c0 -2 -10 -12 -21 -23 -22 -19 -22 -19 -8 4 12 19 29 30 29 19z
m-157 -168 c-8 -8 -13 -7 -18 2 -5 8 -4 10 3 5 7 -4 12 -2 12 5 0 7 3 9 7 6 4
-4 2 -12 -4 -18z m-573 -543 c0 -3 -4 -8 -10 -11 -5 -3 -10 -1 -10 4 0 6 5 11
10 11 6 0 10 -2 10 -4z m49 -90 c9 -11 9 -16 -1 -22 -7 -4 -10 -4 -6 1 4 4 3
14 -3 22 -6 7 -9 13 -6 13 2 0 10 -6 16 -14z m-1402 -26 c1 -11 -2 -20 -7 -20
-6 0 -7 17 -1 38 3 8 7 -1 8 -18z m53 -106 c0 -8 -19 -13 -24 -6 -3 5 1 9 9 9
8 0 15 -2 15 -3z m100 -130 c0 -2 -9 0 -20 6 -11 6 -20 13 -20 16 0 2 9 0 20
-6 11 -6 20 -13 20 -16z m447 -299 c0 -8 -4 -12 -9 -9 -5 3 -6 10 -3 15 9 13
12 11 12 -6z m-624 -11 c-7 -3 -9 -12 -6 -20 3 -8 1 -14 -5 -14 -8 0 -9 16 -3
38 1 1 7 2 14 1 9 0 9 -2 0 -5z m26 -57 c8 -10 7 -14 -2 -14 -8 0 -14 6 -14
14 0 7 1 13 2 13 2 0 8 -6 14 -13z"/>
<path d="M2615 2800 c-3 -5 -2 -10 4 -10 5 0 13 5 16 10 3 6 2 10 -4 10 -5 0
-13 -4 -16 -10z"/>
<path d="M2896 3052 c-3 -5 1 -9 9 -9 8 0 12 4 9 9 -3 4 -7 8 -9 8 -2 0 -6 -4
-9 -8z"/>
<path d="M2510 2971 c0 -5 7 -12 16 -15 14 -5 15 -4 4 9 -14 17 -20 19 -20 6z"/>
<path d="M2896 2822 c-3 -5 1 -9 9 -9 8 0 12 4 9 9 -3 4 -7 8 -9 8 -2 0 -6 -4
-9 -8z"/>
<path d="M3001 2661 c-8 -5 -16 -20 -17 -33 -2 -13 0 -17 2 -11 3 7 5 15 4 19
-1 3 7 12 17 20 20 15 16 19 -6 5z"/>
<path d="M2705 2629 c-3 -3 3 -9 13 -11 11 -3 19 0 19 7 0 13 -25 16 -32 4z"/>
<path d="M2895 2500 c3 -5 8 -10 11 -10 2 0 4 5 4 10 0 6 -5 10 -11 10 -5 0
-7 -4 -4 -10z"/>
<path d="M2475 2390 c-3 -5 -1 -10 4 -10 6 0 11 5 11 10 0 6 -2 10 -4 10 -3 0
-8 -4 -11 -10z"/>
<path d="M2135 2340 c-3 -5 -1 -10 4 -10 6 0 11 5 11 10 0 6 -2 10 -4 10 -3 0
-8 -4 -11 -10z"/>
<path d="M1865 2280 c-3 -6 1 -7 9 -4 18 7 21 14 7 14 -6 0 -13 -4 -16 -10z"/>
<path d="M1974 2229 c-3 -6 -2 -15 3 -20 5 -5 9 -1 9 11 0 23 -2 24 -12 9z"/>
<path d="M2265 2149 c-11 -16 -1 -19 13 -3 7 8 8 14 3 14 -5 0 -13 -5 -16 -11z"/>
<path d="M1340 2129 c0 -5 5 -7 10 -4 6 3 10 8 10 11 0 2 -4 4 -10 4 -5 0 -10
-5 -10 -11z"/>
<path d="M2235 1920 c-3 -5 -1 -10 4 -10 6 0 11 5 11 10 0 6 -2 10 -4 10 -3 0
-8 -4 -11 -10z"/>
<path d="M1170 1749 c0 -5 5 -7 10 -4 6 3 10 8 10 11 0 2 -4 4 -10 4 -5 0 -10
-5 -10 -11z"/>
<path d="M1141 1711 c-8 -5 -9 -11 -3 -15 5 -3 12 1 16 9 6 17 6 18 -13 6z"/>
<path d="M2315 1669 c-4 -6 -5 -12 -2 -15 2 -3 7 2 10 11 7 17 1 20 -8 4z"/>
<path d="M1050 1626 c7 -7 13 -7 20 0 6 6 3 10 -10 10 -13 0 -16 -4 -10 -10z"/>
<path d="M2201 1464 c0 -11 3 -14 6 -6 3 7 2 16 -1 19 -3 4 -6 -2 -5 -13z"/>
<path d="M425 1420 c-3 -6 1 -7 9 -4 18 7 21 14 7 14 -6 0 -13 -4 -16 -10z"/>
<path d="M2041 1336 c-9 -11 -9 -16 0 -22 7 -4 9 -3 5 4 -3 5 0 12 6 15 7 2
10 7 7 11 -3 4 -12 0 -18 -8z"/>
<path d="M95 1000 c-3 -5 -1 -10 4 -10 6 0 11 5 11 10 0 6 -2 10 -4 10 -3 0
-8 -4 -11 -10z"/>
<path d="M1510 906 c0 -2 7 -7 16 -10 8 -3 12 -2 9 4 -6 10 -25 14 -25 6z"/>
<path d="M96 838 c3 -4 11 -5 19 -1 21 7 19 12 -4 10 -11 0 -18 -5 -15 -9z"/>
<path d="M317 413 c-10 -9 -9 -23 1 -23 5 0 9 7 9 15 0 17 -1 18 -10 8z"/>
<path d="M155 220 c-3 -5 -1 -10 4 -10 6 0 11 5 11 10 0 6 -2 10 -4 10 -3 0
-8 -4 -11 -10z"/>
<path d="M650 200 c0 -5 5 -10 11 -10 5 0 7 5 4 10 -3 6 -8 10 -11 10 -2 0 -4
-4 -4 -10z"/>
</g>
</svg>
